<?xml version="1.0" encoding="utf-8"?>
<!-- Generator: Adobe Illustrator 24.0.2, SVG Export Plug-In . SVG Version: 6.00 Build 0)  -->
<svg version="1.1" id="Layer_1" xmlns="http://www.w3.org/2000/svg" xmlns:xlink="http://www.w3.org/1999/xlink" x="0px" y="0px"
	 viewBox="0 0 1080 1080" style="enable-background:new 0 0 1080 1080;" xml:space="preserve">
<style type="text/css">
	.st0{fill:#212121;}
	.st1{fill:#FFC200;}
	.st2{fill:#FFFFFF;stroke:#FFFFFF;stroke-width:2;stroke-miterlimit:10;}
	.st3{font-family:'PoiretOne-Regular';}
	.st4{font-size:19.7165px;}
	.st5{font-size:98.5825px;}
	.st6{font-size:100px;}
	.st7{font-size:20px;}
	.st8{fill:#212121;stroke:#212121;stroke-width:2;stroke-miterlimit:10;}
	.st9{fill:#FFFFFF;}
	.st10{font-size:344.1546px;}
	.st11{font-size:321.5634px;}
</style>
<g>
	<path class="st0" d="M859.29,666.31H786.2c-12.31,0-22.29-9.98-22.29-22.29v-77.92c0-12.31,9.98-22.29,22.29-22.29h73.09
		c12.31,0,22.29,9.98,22.29,22.29v77.92C881.58,656.33,871.6,666.31,859.29,666.31z"/>
	<path class="st1" d="M852.76,660.95h-73.09c-12.31,0-22.29-9.98-22.29-22.29v-77.92c0-12.31,9.98-22.29,22.29-22.29h73.09
		c12.31,0,22.29,9.98,22.29,22.29v77.92C875.04,650.98,865.07,660.95,852.76,660.95z"/>
	<text transform="matrix(1.0144 0 0 1 752.664 619.4068)"><tspan x="0" y="0" class="st2 st3 st4"> </tspan><tspan x="6.9" y="0" class="st2 st3 st5">g.</tspan></text>
	<text transform="matrix(1 0 0 1 464.2372 618.5034)"><tspan x="0" y="0" class="st2 st3 st6">ilicodin</tspan><tspan x="289.99" y="0" class="st2 st3 st7"> </tspan><tspan x="296.99" y="0" class="st8 st3 st6">g.</tspan></text>
	<g>
		<g>
			<path class="st0" d="M240.33,703.37c27.59,16.37,57.83,30.46,89.38,37.03c15.36,3.2,31.14,3.88,46.79,3.47
				c14.76-0.38,29.53-2.24,43.77-6.21c15.48-4.32,29.74-11.24,43.93-18.63c6.8-3.54,13.75-6.98,21.22-8.85
				c6.23-1.56,12.64-2.68,19.06-3.02c35.69-1.87,71.43-3.03,107.16-3.85c36.05-0.83,72.1-1.26,108.16-1.42
				c4.37-0.02,8.73-0.03,13.1-0.05c5.79-0.02,5.8-9.02,0-9c-35.58,0.09-71.15,0.44-106.72,1.15c-35.76,0.72-71.51,1.79-107.24,3.46
				c-14.51,0.67-29.41,1.08-43.16,6.36c-15.17,5.83-28.83,14.88-44.06,20.63c-13.52,5.1-27.66,8.39-42.06,9.69
				c-15.16,1.36-30.9,1.4-46.02-0.44c-15.52-1.89-30.77-6.53-45.35-12.04c-14.98-5.66-29.48-12.59-43.49-20.34
				c-3.34-1.85-6.65-3.75-9.93-5.7C239.88,692.63,235.35,700.41,240.33,703.37L240.33,703.37z"/>
		</g>
	</g>
	<g>
		<g>
			<path class="st9" d="M241.46,698.47c26.68,16.93,56.74,30.2,87.68,36.91c14.78,3.21,29.61,4.09,44.7,3.6
				c15.05-0.49,30.04-2.51,44.54-6.63c15.83-4.5,30.64-11.43,45.27-18.89c7.47-3.81,15.41-7.74,23.76-9.06
				c8.07-1.27,16.45-1.3,24.6-1.74c35.1-1.9,70.26-2.77,105.4-3.33c35.02-0.56,70.04-0.77,105.05-1.15
				c4.12-0.04,8.23-0.09,12.35-0.14c2.89-0.04,2.9-4.54,0-4.5c-34.58,0.43-69.15,0.62-103.73,1.09
				c-35.09,0.48-70.19,1.21-105.26,2.84c-8.29,0.39-16.59,0.83-24.88,1.33c-7.85,0.48-15.59,0.81-23.07,3.48
				c-8.18,2.92-15.78,7.01-23.53,10.89c-7.63,3.82-15.41,7.33-23.4,10.31c-13.96,5.2-28.5,8.66-43.34,10.12
				c-15.06,1.48-30.65,1.78-45.65-0.42c-31.14-4.59-61.5-17.08-88.63-32.76c-3.24-1.87-6.44-3.82-9.61-5.83
				C241.28,693.02,239.02,696.92,241.46,698.47L241.46,698.47z"/>
		</g>
	</g>
	<g>
		<g>
			<text transform="matrix(1.3015 0 0 1 241.2635 694.0933)" class="st0 st3 st10">S</text>
		</g>
		<g>
			<text transform="matrix(1.3984 0 0 1 241.264 685.939)" class="st9 st3 st11">S</text>
		</g>
	</g>
</g>
</svg>
